<?xml version="1.0" standalone="no"?>
<!DOCTYPE svg PUBLIC "-//W3C//DTD SVG 20010904//EN"
 "http://www.w3.org/TR/2001/REC-SVG-20010904/DTD/svg10.dtd">
<svg version="1.0" xmlns="http://www.w3.org/2000/svg"
 width="512.000000pt" height="512.000000pt" viewBox="0 0 512.000000 512.000000"
 preserveAspectRatio="xMidYMid meet">
<metadata>
Created by potrace 1.14, written by Peter Selinger 2001-2017
</metadata>
<g transform="translate(0.000000,512.000000) scale(0.100000,-0.100000)"
fill="#000000" stroke="none">
<path d="M869 4976 c-3 -3 -16 -7 -30 -9 -39 -7 -124 -53 -163 -87 -19 -17
-51 -55 -70 -84 -71 -107 -66 56 -63 -2246 2 -1944 3 -2078 20 -2118 44 -108
119 -190 204 -222 103 -39 142 -34 393 43 63 19 228 70 365 112 236 73 276 85
393 119 26 7 112 34 192 59 296 91 582 179 598 182 9 2 46 14 82 25 36 12 101
32 145 45 76 22 146 43 440 134 72 21 207 63 300 91 665 203 599 182 667 215
114 56 215 162 243 258 13 45 15 241 15 1602 0 1213 -3 1559 -13 1590 -31 99
-90 178 -174 232 -105 67 8 63 -1853 63 -928 0 -1689 -2 -1691 -4z"/>
</g>
</svg>
